<?xml version="1.0" encoding="utf-8"?>
<!-- Generator: Adobe Illustrator 27.4.1, SVG Export Plug-In . SVG Version: 6.00 Build 0)  -->
<svg version="1.1" id="Layer_1" xmlns="http://www.w3.org/2000/svg" xmlns:xlink="http://www.w3.org/1999/xlink" x="0px" y="0px"
	 viewBox="0 0 173.24 173.24" style="enable-background:new 0 0 173.24 173.24;" xml:space="preserve">
<style type="text/css">
	.st0{fill:#FFFFFF;}
	.st1{fill:#F2F2F2;}
</style>
<g>
	<path class="st0" d="M101.32,128.56c-0.46-0.34-0.95-0.48-1.53-0.33c-0.66,0.17-1.31-0.03-1.93-0.18c-3.7-0.86-7.06-2.35-9.76-5.16
		c-1.73-1.79-3.06-3.8-4.2-6.01c-3.45-6.63-4.93-13.83-6.3-21.08c-1-5.31-1.64-10.69-2.9-15.95c-0.56-2.33-1.27-4.63-2.7-6.6
		c-1.11-1.53-2.85-1.87-4.57-2.21c-1.84,0.98-4.09,0.91-5.8,2.3c-1.98,1.61-3.9,3.22-5.55,5.23c-1.74,2.11-3.61,4.13-5.25,6.33
		c-2.66,3.58-5.27,7.2-7.91,10.79c-3.15,4.3-6.05,8.78-9.52,12.85c-1.59,1.87-2.95,3.94-4.68,5.67c-1.06,1.05-1.79,2.41-3.15,3.24
		c-0.82,0.5-1.09,1.73-1.92,2.43c-0.77,0.65-1.4,1.47-2.37,1.89c-0.22,0.09-0.4,0.31-0.56,0.5c-2.04,2.42-4.54,4.21-7.38,5.57
		c-0.63,0.31-1.25,0.32-1.9,0.13c-1.17-0.34-2.25-0.89-3.12-1.72c-2.58-2.45-3.81-5.58-4.38-9.02c-0.32-1.51-0.47-3.05-0.65-4.57
		c-0.31-0.65-0.31-1.31,0-1.96c0.16-0.26,0.35-0.45,0.69-0.39c0.71,0.37,0.65,1.06,0.71,1.7c0.25,2.86,0.69,5.69,1.66,8.41
		c0.64,1.81,1.64,3.39,3.06,4.69c1.79,1.64,3.11,1.8,5.19,0.54c2.28-1.38,4.25-3.15,6.17-4.98c1.71-1.62,3.33-3.33,4.98-5.01
		c4.2-4.71,8.1-9.65,11.82-14.75c3.59-4.92,7.03-9.94,10.74-14.78c2.75-3.58,5.53-7.11,8.62-10.38c1.74-1.85,3.66-3.53,5.97-4.63
		c2.22-1.06,4.61-1.27,7.02-0.89c1.61,0.25,2.69,1.35,3.54,2.66c1.67,2.56,2.39,5.48,3.01,8.41c1.2,5.66,1.98,11.4,3.05,17.09
		c0.96,5.15,2.25,10.22,4.27,15.06c1.31,3.14,2.88,6.17,5.34,8.62c2.24,2.24,4.96,3.58,8.01,4.3c2.5,0.58,5.03,0.92,7.6,0.76
		c0.16-0.02,0.33-0.02,0.5-0.04c3.15-0.32,6.23-0.98,9.21-2.02c3.08-1.08,5.92-2.67,8.69-4.39c3.66-2.27,7.2-4.73,10.76-7.16
		c1.49-1.02,2.84-2.24,4.29-3.33c2.39-1.79,4.4-4.04,6.79-5.84c0.72-0.54,1.16-1.41,1.92-1.93c0.32-0.22,0.59-0.56,1.06-0.39
		c0.16,0.09,0.27,0.21,0.2,0.41c-2.11,3.21-5.28,5.34-8.08,7.81c-2.71,2.39-5.65,4.54-8.67,6.56c-3.47,2.32-6.89,4.71-10.54,6.73
		c-3.99,2.21-8.16,3.9-12.74,4.51c-0.96,0.13-1.96-0.1-2.88,0.32c-0.91,0.24-1.85,0.04-2.77,0.11
		C102.09,128.48,101.69,128.35,101.32,128.56z"/>
	<path class="st0" d="M22.46,44.68c1.14-0.03,2.29-0.36,3.28,0.62c1.57,1.56,2.29,3.45,2.58,5.6c0.63,4.69-0.57,9.09-2,13.47
		c-1.98,6.04-3.27,12.26-4.56,18.47c-0.68,3.27-1.31,6.55-1.61,9.86c-0.12,1.28-0.81,2.33-0.83,3.59c-0.01,0.91,0.78,1.42,0.91,2.26
		c0.05,0.32,0.58-0.01,0.83-0.17c1.38-0.9,2.56-2.06,3.59-3.3c3.43-4.12,6.78-8.31,10.12-12.5c3.76-4.7,7.44-9.46,11.23-14.13
		c1.2-1.48,2.45-2.94,3.78-4.33c1.12-1.17,2.14-2.45,3.33-3.56c4.23-3.97,8.89-7.22,14.69-8.47c1.66-0.36,3.35-0.71,5.03-0.05
		c0.53,0.21,0.98-0.2,1.49-0.17c0.1-0.11,0.19-0.1,0.28,0.01c0.06,0.49-0.33,0.71-0.6,1.01c-1.21,0.26-2.44,0.2-3.66,0.31
		c-2.13,0.19-4.19,0.74-6.14,1.59c-3.78,1.65-7.11,3.99-10.03,6.9c-0.05,0.1-0.13,0.18-0.22,0.25c-0.8,0.51-1.44,1.21-2.06,1.9
		c-5.14,5.78-9.68,12.05-14.57,18.04c-3.74,4.58-7.33,9.28-11.2,13.76c-1.31,1.52-2.73,2.94-4.34,4.16c-0.5,0.38-1.1,0.53-1.65,0.77
		c-0.69,0.3-1.08-0.19-1.26-0.81c-0.42-1.41-0.52-2.85-0.34-4.3c0.04-0.35,0.13-0.69,0.05-1.05c-0.13-2.09,0.32-4.12,0.66-6.15
		c1.61-9.42,3.72-18.71,6.7-27.8c1.08-3.28,1.31-6.68,0.78-10.11c-0.02-0.14-0.05-0.29-0.09-0.43c-0.53-2.08-1.45-3.81-3.81-4.24
		C22.55,45.39,22.28,45.11,22.46,44.68z"/>
	<path class="st0" d="M73.87,52.52c0.22-0.22,0.44-0.43,0.65-0.65c0.97-0.33,1.89,0.11,2.83,0.22c0.99,0.35,2.02,0.62,2.96,1.06
		c4.6,2.17,7.22,6.01,8.89,10.64c0.25,0.68,0.38,1.41,0.78,2.03c0.24,1.18,0.67,2.3,0.87,3.49c0.71,3.5,1.28,7.01,1.67,10.57
		c0.25,2.29,0.42,4.58,0.73,6.86c-0.05,1.69,0.34,3.34,0.44,5.01c0.36,1.28,0.27,2.64,0.65,3.92c0.76,4.82,2.23,9.31,6.04,12.67
		c1.2,1.05,2.62,1.66,4.2,1.93c0.3,0.2,0.63,0.07,0.95,0.11c0.59,0.08,1.06,0.28,0.94,1.03c-0.48,0.64-1.13,0.39-1.73,0.3
		c-4.14-0.58-6.83-3.11-8.78-6.6c-2.31-4.13-3.04-8.68-3.55-13.31c-0.72-6.57-1.19-13.17-2.45-19.67
		c-0.71-3.67-1.61-7.27-3.29-10.63c-0.97-1.96-2.2-3.83-3.85-5.19c-2.14-1.77-4.68-2.91-7.55-3.11
		C74.79,53.13,74.12,53.21,73.87,52.52z"/>
	<path class="st0" d="M22.46,44.68c0.15,0.22,0.29,0.43,0.44,0.65c-0.21,0.59-0.75,0.68-1.24,0.71c-3.1,0.21-5.03,2.04-6.36,4.64
		c-2.33,4.54-3.82,9.39-5.13,14.31c-2.37,8.85-3.68,17.89-4.75,26.97c-0.34,2.87-0.67,5.76-0.74,8.66c-0.01,0.58-0.09,1.16-0.54,1.6
		c-0.49,0.24-0.64-0.16-0.85-0.45c-0.06-0.17-0.19-0.34-0.18-0.5c0.12-2.24,0.21-4.48,0.61-6.69C3.9,93.12,4,91.66,4.16,90.21
		c0.02-1.7,0.3-3.36,0.65-5.01c0.2-1.01,0.26-2.04,0.44-3.05c0.02-0.52-0.08-1.05,0.22-1.52c0.26-1.75,0.56-3.49,0.87-5.23
		c0.1-1.11,0.17-2.23,0.65-3.27c0.27-1.01,0.39-2.04,0.65-3.05c0-0.31,0.03-0.61,0.22-0.87c0.33-1.46,0.68-2.92,1.09-4.36
		c0.54-2.38,1.07-4.77,2.18-6.97c0.45-1.5,0.99-2.97,1.74-4.36C14.06,48.41,17.34,44.28,22.46,44.68z"/>
	<path class="st0" d="M110.69,110.26c2.59-0.29,4.93-1.37,7.26-2.44c3.76-1.73,7.12-4.13,10.48-6.5c0.32-0.23,0.66-0.43,1-0.65
		c0.52-0.69,1.27-1.06,1.96-1.52c1.52-1.25,3.08-2.46,4.54-3.78c0.8-0.72,1.62-1.4,2.43-2.1c0.35-0.52,0.76-1.01,1.38-1.15
		c0.5-0.11,0.53-0.54,0.79-0.81c0.07-0.07,0.15-0.15,0.22-0.22c0.43-0.61,0.95-1.12,1.65-1.43c0.43-0.19,0.7-0.58,0.96-0.96
		c0.07-0.07,0.15-0.15,0.22-0.22c0.78-1.16,1.92-1.85,3.16-2.41c0.19,0.15,0.2,0.38,0.26,0.59c0.05,0.78-0.58,1.13-1.04,1.54
		c-2.13,1.92-4.19,3.9-6.36,5.78c-3.33,3.11-6.85,6-10.53,8.68c-4.49,3.27-9.14,6.31-14.48,8.08c-1.35,0.45-2.72,0.84-4.13,1
		c-0.55,0.06-1.24,0.34-1.65-0.38C108.91,110.07,110.01,110.52,110.69,110.26z"/>
	<path class="st0" d="M148.16,102.41c-0.07-0.07-0.15-0.15-0.22-0.22c-0.36-0.56,0.07-0.9,0.39-1.21c3.02-2.96,5.77-6.17,8.51-9.38
		c2.04-2.39,3.83-4.95,5.53-7.57c1.8-2.78,3.85-5.43,5.05-8.57c0.59-1.54,1.36-3.01,1.47-4.7c0.03-0.47,0.17-0.95,0.8-0.99
		c0.78,0.25,0.66,0.92,0.55,1.45c-0.11,0.52-0.11,1.07-0.29,1.57c-1.04,2.27-1.84,4.64-3.14,6.79c-2.84,4.68-5.94,9.18-9.49,13.36
		c-1.91,2.25-3.74,4.55-5.94,6.54c-0.67,0.61-1.15,1.47-1.84,2.12C149.14,101.97,148.72,102.31,148.16,102.41z"/>
	<path class="st0" d="M146.64,86.73c0-0.22,0-0.44,0-0.66c0.19-0.85,0.98-1.22,1.49-1.8c0.53-0.61,1.33-0.99,1.52-1.89
		c0.07-0.31,0.42-0.48,0.69-0.67c0.58-0.39,0.66-1.2,1.31-1.52c1.7-2.28,3.61-4.38,5.45-6.54c0.62-0.48,0.77-1.38,1.52-1.74
		c0.78-0.34,1.14-1.08,1.58-1.71c1.09-1.58,2.63-2.65,4.22-3.6c1.83-1.1,4.41-0.42,5.59,1.45c0.38,0.6,0.67,1.39-0.47,1.66
		c-0.39-0.06-0.47-0.4-0.62-0.69c-0.74-1.44-2.46-1.97-3.87-1.18c-0.8,0.45-1.45,1.08-2.11,1.7c-3.93,3.67-7.15,7.97-10.63,12.05
		c-1.43,1.68-2.87,3.38-4.55,4.83C147.43,86.7,147.14,87.07,146.64,86.73z"/>
	<path class="st0" d="M169.51,69.52c1.03-0.45,0.59-1.09,0.16-1.65c-1.53-2-4.4-2.11-6.42-0.36c-1.33,1.16-2.76,2.2-3.65,3.78
		c-0.19,0.34-0.59,0.52-0.99,0.62c1.54-2.02,3.14-3.96,5.39-5.27c1.54-0.9,3.6-0.87,5.02,0.18c0.88,0.65,1.44,1.42,1.31,2.66
		c-0.11,1.1,0.13,2.24-0.39,3.3c0.06-0.54,0.11-1.08,0.17-1.61c0.06-0.54,0.03-1.03-0.6-1.22C169.4,69.81,169.4,69.66,169.51,69.52z
		"/>
	<path class="st0" d="M93.26,86.73c-0.2-0.11-0.33-0.26-0.33-0.51c-0.13-4.5-0.77-8.95-1.51-13.39c-0.2-1.18-0.37-2.35-0.56-3.53
		c0.73,1.87,0.86,3.87,1.17,5.82C92.63,78.97,93.16,82.83,93.26,86.73z"/>
	<path class="st0" d="M150.34,81.72c-0.84,1.79-2.5,2.88-3.7,4.36c-0.99,0.83-2.16,1.44-3.05,2.4c0.22-0.74,0.79-1.22,1.38-1.61
		c1.82-1.2,3.27-2.77,4.53-4.51C149.72,82.04,149.97,81.8,150.34,81.72z"/>
	<path class="st0" d="M3.29,101.76c0.22,0.15,0.43,0.29,0.65,0.44c0.32,0.23,0.37,0.54,0.24,0.89c-0.56,0.39-0.7,0.95-0.69,1.61
		c0.02,1.01,0.04,2.02-0.02,3.03c-0.04,0.67,0.12,1.29,0.77,1.66c0.18,0.44,0.12,0.82-0.3,1.09c-0.22,0.07-0.43,0.15-0.65,0.22
		c0.16-0.44,0.35-0.86-0.11-1.28c-0.34-0.31-0.32-0.79-0.32-1.23c0-1.31,0.05-2.61-0.02-3.92C2.79,103.37,3.64,102.68,3.29,101.76z"
		/>
	<path class="st0" d="M157.09,73.66c-1.65,2.32-3.54,4.43-5.45,6.54c0.45-1.35,1.62-2.16,2.43-3.25c0.78-1.06,1.69-2.04,2.55-3.03
		C156.74,73.78,156.94,73.74,157.09,73.66z"/>
	<path class="st0" d="M110.69,110.26c-0.61,0.31-1.51,0.17-1.74,1.09c-0.1,0.14-0.24,0.2-0.41,0.2c-0.61-0.54-1.21-0.24-1.81,0.03
		c-0.17-0.02-0.31-0.09-0.4-0.23c-0.19-1-1.16-0.73-1.74-1.09C106.62,110.49,108.66,110.67,110.69,110.26z"/>
	<path class="st0" d="M6.34,75.4c-0.15,1.77-0.39,3.52-0.87,5.23C5.56,78.85,5.8,77.1,6.34,75.4z"/>
	<path class="st0" d="M12.87,52.52c-0.58,1.45-1.16,2.9-1.74,4.36C11.39,55.3,11.9,53.82,12.87,52.52z"/>
	<path class="st0" d="M4.16,90.21c0.08,1.48-0.04,2.93-0.44,4.36C3.71,93.1,3.77,91.64,4.16,90.21z"/>
	<path class="st0" d="M94.35,95.66c-0.64-1.24-0.54-2.6-0.65-3.92C94.27,92.99,94.21,94.34,94.35,95.66z"/>
	<path class="st0" d="M8.95,63.85c-0.21,1.49-0.55,2.95-1.09,4.36C8,66.7,8.33,65.24,8.95,63.85z"/>
	<path class="st0" d="M3.29,112.65c0.37,1.5,0.53,3.04,0.65,4.57C3.42,115.74,3.29,114.21,3.29,112.65z"/>
	<path class="st0" d="M143.37,88.69c-0.46,1.24-1.86,1.47-2.61,2.4c0.2-0.71,0.76-1.07,1.34-1.44
		C142.54,89.36,142.95,89.01,143.37,88.69z"/>
	<path class="st0" d="M90.87,69.3c-0.42-1.13-0.82-2.26-0.87-3.49C90.45,66.93,90.84,68.07,90.87,69.3z"/>
	<path class="st0" d="M140.54,91.3c-0.29,1.14-1.58,1.17-2.18,1.96C138.64,92.12,139.93,92.08,140.54,91.3z"/>
	<path class="st0" d="M101.32,128.56c1.29-0.45,2.62-0.11,3.92-0.22C103.96,128.79,102.63,128.45,101.32,128.56z"/>
	<path class="st0" d="M7.65,69.08c-0.06,1.05-0.21,2.08-0.65,3.05C7.05,71.08,7.2,70.05,7.65,69.08z"/>
	<path class="st0" d="M5.25,82.15c0.02,1.04-0.05,2.07-0.44,3.05C4.8,84.16,4.92,83.14,5.25,82.15z"/>
	<path class="st0" d="M131.39,99.14c-0.56,0.63-1.28,1.05-1.96,1.52C129.82,99.83,130.55,99.42,131.39,99.14z"/>
	<path class="st0" d="M77.36,52.09c-0.94-0.07-1.89-0.15-2.83-0.22c-0.07,0-0.15,0-0.22,0C75.36,51.42,76.36,51.73,77.36,52.09z"/>
	<path class="st1" d="M3.94,110.47c0-0.36,0-0.73,0-1.09c-0.83-0.89-0.31-2.01-0.45-3.01c-0.08-0.57-0.03-1.22,0.02-1.83
		c-0.03-0.44,0.27-0.81,0.28-1.25c0.03-0.09,0.09-0.17,0.15-0.23c0-0.29,0-0.58,0-0.87c0.5-6.14,1.08-12.27,1.96-18.37
		c1.29-9,3.02-17.89,6.01-26.5c1.08-3.11,2.17-6.25,4.21-8.92c1.31-1.71,3.01-2.67,5.16-2.87c0.54-0.05,1.08-0.14,1.62-0.21
		c2.06-0.01,3.21,0.8,4.12,4.05c1.02,3.64,0.69,7.39-0.47,10.94c-3,9.23-5.16,18.66-6.8,28.21c-0.34,2-0.51,4.02-0.77,6.03
		c-0.79,0.87-0.51,1.94-0.52,2.95c-0.01,0.34,0.07,0.68,0.12,1.02c0.4,2.41,1.28,2.72,3.24,1.21c2.43-1.87,4.44-4.16,6.35-6.53
		c4.33-5.36,8.66-10.71,12.94-16.1c2.7-3.41,5.33-6.88,8.13-10.22c1.5-1.78,3.11-3.45,4.59-5.24l0,0c2.25-1.66,4.32-3.54,6.72-5
		c3.68-2.25,7.63-3.48,11.95-3.61c3.75-0.11,7.15,0.81,10.18,3.05c0.69,0.51,1.17,1.24,1.71,1.9c2.89,3.52,4.23,7.73,5.18,12.08
		c1.4,6.48,1.98,13.07,2.61,19.65c0.36,3.7,0.8,7.39,1.91,10.96c0.83,2.66,2.06,5.1,3.85,7.24c2.29,2.74,5.33,3.78,8.8,3.95
		c4.28,0.21,8.2-1.02,11.99-2.83c3.28-1.57,6.32-3.53,9.28-5.64c3.56-2.53,6.93-5.32,10.24-8.17c0.41-0.36,0.75-0.79,1.14-1.16
		c3.58-3.04,7.08-6.17,10.3-9.59c1.56-1.66,3.08-3.38,4.5-5.18c0.99-1.25,2.04-2.46,3.08-3.66c0.23-0.27,0.43-0.6,0.87-0.57
		c0.29,0.01,0.59,0.06,0.8,0.28c1.77,1.79,3.76,3.37,5.2,5.47c-0.17,1.29-1.15,2.14-1.79,3.16c-1.43,2.26-2.89,4.51-4.61,6.55
		c-1.32,1.56-2.7,3.09-3.99,4.68c-2.31,2.84-5.3,5-7.62,7.82c-1.66,2.02-3.83,3.47-5.74,5.19c-5.11,4.61-10.88,8.32-16.66,12.02
		c-1.99,1.27-3.98,2.58-6.12,3.51c-3.35,1.45-6.82,2.68-10.51,3.04c-0.66,0.06-1.36,0.04-1.83,0.65c-0.15,0-0.29,0-0.44,0
		c-0.39-0.33-0.89-0.31-1.32-0.3c-2.88,0.03-5.67-0.51-8.38-1.42c-2.92-0.98-5.34-2.69-7.24-5.14c-3.03-3.9-4.71-8.43-6.14-13.08
		c-1.67-5.45-2.57-11.07-3.51-16.68c-0.69-4.11-1.31-8.25-2.4-12.28c-0.41-1.53-0.89-3.06-1.63-4.48c-1.72-3.32-3.77-4.35-7.49-3.98
		c-3.31,0.32-5.9,2-8.23,4.16c-3.71,3.44-6.82,7.4-9.83,11.43c-1.19,1.59-2.43,3.12-3.58,4.74c-4.21,5.9-8.37,11.84-12.81,17.58
		c-0.84,1.09-1.73,2.15-2.67,3.16c-1.09,1.17-1.87,2.59-3.12,3.62c-0.34,0.28-0.39,0.73-0.52,1.13c-1.7,2.34-3.87,4.23-5.96,6.18
		c-1.72,1.61-3.53,3.11-5.6,4.29c-2.01,1.15-3.04,0.98-5.2-0.79c-2.68-2.2-3.65-5.33-4.36-8.56C4.36,114.88,4.27,112.66,3.94,110.47
		z"/>
	<path class="st1" d="M25.95,115.92c-0.33-0.68-0.17-1.22,0.34-1.77c3.97-4.23,7.44-8.86,10.83-13.55
		c4.31-5.98,8.52-12.04,13.1-17.82c2.31-2.92,4.65-5.82,7.36-8.4c1.66-1.58,3.43-3.06,5.56-3.93c2-0.81,4.12-1.17,6.29-0.84
		c3.24,0.49,4.72,2.85,5.79,5.59c1.76,4.49,2.38,9.26,3.22,13.97c0.97,5.46,1.73,10.97,3.19,16.33c1.16,4.24,2.58,8.41,4.79,12.23
		c1.88,3.25,4.44,5.92,8.02,7.31c1.78,0.69,3.67,1.09,5.59,1.37c1.33,0.19,2.65,0.48,4,0.54c0.33,0.01,0.63,0.17,0.79,0.51
		c-2.25,0-4.49,0.03-6.72-0.39c-5.94-1.14-10.17-4.48-12.97-9.78c-2.91-5.51-4.55-11.44-5.79-17.5c-1.16-5.69-1.95-11.44-3.02-17.14
		c-0.46-2.43-1.15-4.8-1.99-7.12c-0.4-1.1-1.01-2.09-1.7-3.02c-1.68-2.27-4.08-2.06-6.45-1.8c-2.75,0.3-4.97,1.73-6.95,3.56
		c-5.21,4.84-9.39,10.55-13.58,16.24c-4.49,6.1-8.68,12.43-13.46,18.32c-1.69,2.08-3.45,4.1-5.19,6.14
		C26.68,115.32,26.3,115.61,25.95,115.92z"/>
	<path class="st1" d="M158.18,75.4c-1.96,2.26-3.79,4.63-5.8,6.84c-2.3,2.53-4.47,5.22-7.24,7.29c-0.45,0.34-0.72,0.81-1.09,1.2
		c-0.99,1-2.32,1.62-3.11,2.85c-0.26,0.4-0.85,0.35-1.27,0.56c-0.38,0.01-0.37-0.18-0.22-0.44c1.34-1.61,3.03-2.86,4.53-4.3
		c0.91-0.87,1.86-1.69,2.66-2.67c2.59-2.07,4.64-4.66,6.75-7.19c3.04-3.64,6.01-7.35,9.45-10.64c0.68-0.65,1.42-1.24,2.28-1.65
		c1.81-0.86,4.02,0.29,4.39,2.27c0,0.15,0,0.29,0,0.44c-0.52,4.01-2.33,7.5-4.42,10.88c-3.39,5.5-7.24,10.65-11.58,15.44
		c-1.82,2.01-3.71,3.95-5.57,5.93c-1.86,1.35-3.37,3.07-5.09,4.59c-3.32,2.94-6.7,5.79-10.36,8.29c-4.58,3.13-9.08,6.43-14.1,8.84
		c-4.14,1.98-8.49,3.38-13.15,3.56c-0.03-0.8,0.4-1.04,1.14-1.1c3.09-0.27,6.01-1.17,8.92-2.23c3.82-1.4,7.11-3.71,10.51-5.82
		c2.12-1.32,4.12-2.82,6.2-4.2c2.17-1.44,4.14-3.13,6.2-4.71c1.07-0.82,1.93-1.88,3.01-2.64c1.2-0.85,1.96-2.24,3.49-2.68
		c0.65-0.19,0.74-1.02,1.19-1.5c1.75-1.88,3.34-3.92,5.59-5.27c0.12-0.07,0.26-0.17,0.31-0.29c0.96-2.11,2.74-3.58,4.22-5.27
		c2.97-3.39,5.24-7.26,7.84-10.9c-0.19-0.58,0.04-1.05,0.36-1.51c1.46-2.1,2.38-4.47,3.29-6.83c0.29-0.74,0.38-1.55,0.37-2.35
		c-0.01-1.28-0.94-1.9-2.14-1.43c-0.55,0.21-1.03,0.55-1.42,0.98c-1.55,1.71-3.47,3.07-4.82,4.97
		C159.16,75.13,158.62,75.16,158.18,75.4z"/>
	<path class="st1" d="M139.45,93.7c0.07,0.15,0.15,0.29,0.22,0.44c-0.25,0.86-0.98,1.27-1.57,1.85c-1.43,1.39-2.99,2.61-4.54,3.85
		c-3.42,2.74-6.98,5.28-10.74,7.55c-3.19,1.92-6.52,3.5-10.13,4.41c-3.51,0.89-7.05,0.97-10.51-0.23c-3.2-1.11-5.21-3.54-6.77-6.42
		c-2.55-4.71-3.14-9.89-3.68-15.1c-0.74-7.17-1.3-14.37-3.02-21.4c-1.06-4.34-2.87-8.28-5.75-11.7c-0.48-0.56-1.19-0.66-1.74-1.07
		c-1.48-1.12-3.18-1.74-5-2.02c-4.34-0.68-8.51-0.08-12.53,1.69c-2.44,1.08-4.56,2.64-6.65,4.27c-0.57,0.44-1.17,0.8-1.59,1.41
		c-0.38,0.54-1.03,0.45-1.61,0.45c0.39-1.11,1.41-1.62,2.22-2.31c3.88-3.28,8.15-5.78,13.28-6.5c1.5-0.21,3.01-0.41,4.54-0.34
		c6.9,0.25,11.26,4.02,13.93,10.1c1.82,4.16,2.58,8.6,3.28,13.05c1,6.3,1.29,12.69,2.2,19c0.64,4.41,1.74,8.68,4.55,12.31
		c2.16,2.79,4.98,4.24,8.5,4.36c0.15,0,0.29,0,0.44,0c0.58-0.31,1.16-0.45,1.74,0c0.15,0,0.29,0,0.44,0c2.8-0.06,5.4-0.93,7.95-2.01
		c5.75-2.45,10.77-6.05,15.62-9.91c2.06-1.64,4.11-3.31,6.03-5.12C138.81,94.05,139.15,93.89,139.45,93.7z"/>
	<path class="st1" d="M53.83,61.67c-0.06,0.28-0.02,0.73-0.19,0.82c-1.43,0.76-1.52,2.69-3.06,3.39c-0.7,0.32-0.84,1.27-1.34,1.89
		c-4.06,5-8.04,10.05-12.06,15.08c-3.09,3.87-6.17,7.75-9.34,11.56c-1.7,2.05-3.53,3.99-5.61,5.68c-0.72,0.59-1.64,0.76-2.5,0.97
		c-0.61,0.15-1.02-0.24-1.23-0.83c-0.52-1.46-0.69-2.96-0.6-4.49c0.04-0.67,0.39-1.07,1.07-1.16c0.06,1.48-0.13,2.97,0.21,4.45
		c0.3,1.27,0.54,1.42,1.68,0.75c1.35-0.79,2.55-1.81,3.59-2.97c2.97-3.28,5.62-6.82,8.44-10.23c5.73-6.92,11.03-14.2,16.9-21.01
		c0.95-1.1,1.98-2.11,2.99-3.16C53.08,62.09,53.37,61.77,53.83,61.67z"/>
	<path class="st0" d="M3.94,104.16c0,1.74,0,3.49,0,5.23c-0.7-0.08-0.85-0.59-0.86-1.16c-0.01-1.33-0.01-2.66,0-3.99
		c0.01-0.58,0.15-1.08,0.86-1.16c0,0.07,0,0.15,0,0.22C4.18,103.57,4.18,103.87,3.94,104.16z"/>
	<path class="st0" d="M108.51,111.34c-0.58,0-1.16,0-1.74,0C107.35,110.73,107.93,110.39,108.51,111.34z"/>
	<path class="st1" d="M158.18,75.4c0.84-0.88,1.31-2.03,2.36-2.81c1.3-0.96,2.34-2.26,3.52-3.38c0.69-0.66,1.42-1.24,2.46-1.21
		c1.22,0.04,1.88,0.67,1.89,1.89c0.01,1.39-0.36,2.68-0.86,3.99c-0.96,2.49-2.18,4.8-3.71,6.98c-1.49-1.45-2.98-2.91-4.47-4.36
		C158.99,76.11,158.58,75.76,158.18,75.4z"/>
	<path class="st1" d="M3.94,104.16c0-0.29,0-0.58,0-0.87c0.29,0.05,0.72-0.05,0.71,0.41C4.65,104.1,4.25,104.1,3.94,104.16z"/>
</g>
</svg>
