<?xml version="1.0" encoding="UTF-8"?><svg id="Layer_1" xmlns="http://www.w3.org/2000/svg" viewBox="0 0 198.33 198.33"><defs><style>.cls-1{fill:#eee;}</style></defs><path class="cls-1" d="m134.21,162.05c-6.9,3.04-13.8,6.09-20.7,9.13-5.7,2.52-11.4,5.04-17.11,7.56-6.9,3.05-13.79,6.1-20.68,9.15-2.94,1.3-5.89,2.56-8.81,3.9-.58.27-.8.21-1.03-.34-.87-2.07-1.72-4.14-2.67-6.18-.34-.73-.15-1.02.5-1.31,3.67-1.63,7.33-3.29,11-4.93,5.78-2.6,11.56-5.18,17.33-7.79,4.08-1.84,8.15-3.71,12.23-5.56,5.13-2.32,10.27-4.62,15.4-6.94,4.02-1.82,8.02-3.64,12.03-5.48.44-.2.88-.29,1.36-.29,20.47,0,40.94,0,61.42,0,.78,0,1.02.14,1.02.99-.03,12.49-.03,24.97,0,37.46,0,.72-.13,1-.93.99-2.43-.06-4.86-.06-7.3,0-.82.02-.92-.28-.92-.99.02-9.47.02-18.95,0-28.42,0-.29-.02-.58-.02-.87-.31-.16-.64-.09-.96-.09h-50.3c-.29,0-.58-.03-.87.04v-.02Z"/><path class="cls-1" d="m3.33,161.88c0-2.76-.02-5.52-.05-8.27,0-.55.19-.71.69-.65.14.02.29,0,.44,0,20.22,0,40.45,0,60.67-.02.92,0,1.24.16,1.21,1.16-.09,2.58-.03,5.15-.03,7.73-.3.31-.69.16-1.03.16H4.4c-.35,0-.73.1-1.06-.12h-.01Z"/></svg>